<svg width="16" height="16" viewBox="0 0 16 16" fill="none" xmlns="http://www.w3.org/2000/svg">
<g opacity="0.5">
<path d="M2.08889 15L1 13.9111L8.97222 5.93889C8.73889 5.39444 8.70648 4.7787 8.875 4.09167C9.04352 3.40463 9.41296 2.78889 9.98333 2.24444C10.6704 1.55741 11.4352 1.15556 12.2778 1.03889C13.1204 0.922222 13.8074 1.12963 14.3389 1.66111C14.8704 2.19259 15.0778 2.87963 14.9611 3.72222C14.8444 4.56481 14.4426 5.32963 13.7556 6.01667C13.2111 6.58704 12.5954 6.95648 11.9083 7.125C11.2213 7.29352 10.6056 7.26111 10.0611 7.02778L9.08889 8L15 13.9111L13.9111 15L8 9.12778L2.08889 15ZM4.38333 8.35L2.05 6.01667C1.35 5.31667 1 4.48056 1 3.50833C1 2.53611 1.35 1.7 2.05 1L6.87222 5.86111L4.38333 8.35Z" fill="black"/>
</g>
</svg>
