<svg width="32" height="32" viewBox="0 0 32 32" fill="none" xmlns="http://www.w3.org/2000/svg">
<rect width="32" height="32" rx="8" fill="#FFC800"/>
<path fill-rule="evenodd" clip-rule="evenodd" d="M9.06697 18.8999L14.6816 9.52664C14.7998 9.33188 14.9662 9.17086 15.1648 9.05912C15.3633 8.94737 15.5873 8.88867 15.8151 8.88867C16.043 8.88867 16.267 8.94737 16.4655 9.05912C16.6641 9.17086 16.8305 9.33188 16.9487 9.52664L22.5633 18.8999C22.679 19.1004 22.7402 19.3277 22.7408 19.5592C22.7414 19.7907 22.6814 20.0183 22.5668 20.2194C22.4522 20.4205 22.2869 20.588 22.0874 20.7055C21.8879 20.8229 21.6612 20.886 21.4297 20.8887H10.2005C9.969 20.8863 9.74211 20.8233 9.5425 20.7059C9.34288 20.5885 9.1775 20.4209 9.06282 20.2197C8.94815 20.0186 8.88819 19.7908 8.88892 19.5593C8.88965 19.3277 8.95104 19.1004 9.06697 18.8999ZM15.8151 12.536C16.0261 12.536 16.2285 12.6198 16.3776 12.769C16.5268 12.9182 16.6106 13.1205 16.6106 13.3315V15.718C16.6106 15.9289 16.5268 16.1313 16.3776 16.2805C16.2285 16.4296 16.0261 16.5135 15.8151 16.5135C15.6042 16.5135 15.4018 16.4296 15.2526 16.2805C15.1035 16.1313 15.0196 15.9289 15.0196 15.718V13.3315C15.0196 13.1205 15.1035 12.9182 15.2526 12.769C15.4018 12.6198 15.6042 12.536 15.8151 12.536ZM15.0196 18.1044C15.0196 17.8935 15.1035 17.6911 15.2526 17.5419C15.4018 17.3928 15.6042 17.309 15.8151 17.309H15.8215C16.0325 17.309 16.2348 17.3928 16.384 17.5419C16.5332 17.6911 16.617 17.8935 16.617 18.1044C16.617 18.3154 16.5332 18.5178 16.384 18.6669C16.2348 18.8161 16.0325 18.8999 15.8215 18.8999H15.8151C15.6042 18.8999 15.4018 18.8161 15.2526 18.6669C15.1035 18.5178 15.0196 18.3154 15.0196 18.1044Z" fill="black"/>
</svg>
