<svg width="41" height="46" viewBox="0 0 41 46" fill="none" xmlns="http://www.w3.org/2000/svg">
<g filter="url(#filter0_d_308_15078)">
<mask id="path-1-inside-1_308_15078" fill="white">
<path fill-rule="evenodd" clip-rule="evenodd" d="M20.444 4C11.9145 4 5 10.9145 5 19.444C5 26.6596 9.94834 32.7195 16.6366 34.4152L19.861 40L22.927 34.6896C30.276 33.5019 35.8881 27.1283 35.8881 19.444C35.8881 10.9145 28.9736 4 20.444 4Z"/>
</mask>
<path fill-rule="evenodd" clip-rule="evenodd" d="M20.444 4C11.9145 4 5 10.9145 5 19.444C5 26.6596 9.94834 32.7195 16.6366 34.4152L19.861 40L22.927 34.6896C30.276 33.5019 35.8881 27.1283 35.8881 19.444C35.8881 10.9145 28.9736 4 20.444 4Z" fill="#FFC800"/>
<path d="M16.6366 34.4152L17.5027 33.9152L17.2916 33.5497L16.8824 33.4459L16.6366 34.4152ZM19.861 40L18.995 40.5L19.861 42L20.727 40.5L19.861 40ZM22.927 34.6896L22.7675 33.7024L22.2985 33.7782L22.061 34.1896L22.927 34.6896ZM6 19.444C6 11.4668 12.4668 5 20.444 5V3C11.3622 3 4 10.3622 4 19.444H6ZM16.8824 33.4459C10.627 31.8599 6 26.1911 6 19.444H4C4 27.1282 9.26968 33.5791 16.3909 35.3846L16.8824 33.4459ZM20.727 39.5L17.5027 33.9152L15.7706 34.9152L18.995 40.5L20.727 39.5ZM22.061 34.1896L18.995 39.5L20.727 40.5L23.793 35.1896L22.061 34.1896ZM34.8881 19.444C34.8881 26.6298 29.6398 32.5917 22.7675 33.7024L23.0865 35.6767C30.9122 34.412 36.8881 27.6269 36.8881 19.444H34.8881ZM20.444 5C28.4213 5 34.8881 11.4668 34.8881 19.444H36.8881C36.8881 10.3622 29.5258 3 20.444 3V5Z" fill="white" mask="url(#path-1-inside-1_308_15078)"/>
</g>
<path fill-rule="evenodd" clip-rule="evenodd" d="M11.0904 22.9147L18.6701 10.2607C18.8297 9.99774 19.0543 9.78037 19.3224 9.62952C19.5904 9.47866 19.8928 9.39941 20.2004 9.39941C20.508 9.39941 20.8104 9.47866 21.0784 9.62952C21.3465 9.78037 21.5711 9.99774 21.7307 10.2607L29.3105 22.9147C29.4666 23.1853 29.5492 23.4922 29.5501 23.8046C29.5509 24.1171 29.4699 24.4244 29.3151 24.6959C29.1604 24.9674 28.9373 25.1936 28.668 25.3521C28.3987 25.5106 28.0926 25.5959 27.7801 25.5995H12.6207C12.3081 25.5962 12.0018 25.5112 11.7323 25.3527C11.4628 25.1943 11.2396 24.968 11.0848 24.6964C10.9299 24.4248 10.849 24.1174 10.85 23.8048C10.851 23.4922 10.9338 23.1853 11.0904 22.9147ZM20.2004 14.3233C20.4852 14.3233 20.7584 14.4365 20.9598 14.6379C21.1612 14.8393 21.2743 15.1124 21.2743 15.3972V18.619C21.2743 18.9038 21.1612 19.177 20.9598 19.3784C20.7584 19.5798 20.4852 19.6929 20.2004 19.6929C19.9156 19.6929 19.6424 19.5798 19.441 19.3784C19.2396 19.177 19.1265 18.9038 19.1265 18.619V15.3972C19.1265 15.1124 19.2396 14.8393 19.441 14.6379C19.6424 14.4365 19.9156 14.3233 20.2004 14.3233ZM19.1265 21.8407C19.1265 21.5559 19.2396 21.2828 19.441 21.0814C19.6424 20.88 19.9156 20.7668 20.2004 20.7668H20.209C20.4938 20.7668 20.767 20.88 20.9684 21.0814C21.1698 21.2828 21.2829 21.5559 21.2829 21.8407C21.2829 22.1256 21.1698 22.3987 20.9684 22.6001C20.767 22.8015 20.4938 22.9147 20.209 22.9147H20.2004C19.9156 22.9147 19.6424 22.8015 19.441 22.6001C19.2396 22.3987 19.1265 22.1256 19.1265 21.8407Z" fill="black"/>
<defs>
<filter id="filter0_d_308_15078" x="0.4" y="0.4" width="40.0881" height="45.2" filterUnits="userSpaceOnUse" color-interpolation-filters="sRGB">
<feFlood flood-opacity="0" result="BackgroundImageFix"/>
<feColorMatrix in="SourceAlpha" type="matrix" values="0 0 0 0 0 0 0 0 0 0 0 0 0 0 0 0 0 0 127 0" result="hardAlpha"/>
<feOffset dy="1"/>
<feGaussianBlur stdDeviation="2.3"/>
<feComposite in2="hardAlpha" operator="out"/>
<feColorMatrix type="matrix" values="0 0 0 0 0 0 0 0 0 0 0 0 0 0 0 0 0 0 0.16 0"/>
<feBlend mode="normal" in2="BackgroundImageFix" result="effect1_dropShadow_308_15078"/>
<feBlend mode="normal" in="SourceGraphic" in2="effect1_dropShadow_308_15078" result="shape"/>
</filter>
</defs>
</svg>
