<svg width="18" height="18" viewBox="0 0 18 18" fill="none" xmlns="http://www.w3.org/2000/svg">
<path fill-rule="evenodd" clip-rule="evenodd" d="M2.125 13.8125C2.125 14.3098 2.32254 14.7867 2.67417 15.1383C3.02581 15.49 3.50272 15.6875 4 15.6875H14C14.4973 15.6875 14.9742 15.49 15.3258 15.1383C15.6775 14.7867 15.875 14.3098 15.875 13.8125V3.8125C15.875 3.31522 15.6775 2.83831 15.3258 2.48667C14.9742 2.13504 14.4973 1.9375 14 1.9375H4C3.50272 1.9375 3.02581 2.13504 2.67417 2.48667C2.32254 2.83831 2.125 3.31522 2.125 3.8125V13.8125ZM4 17.5625C3.00544 17.5625 2.05161 17.1674 1.34835 16.4642C0.645088 15.7609 0.25 14.8071 0.25 13.8125V3.8125C0.25 2.81794 0.645088 1.86411 1.34835 1.16085C2.05161 0.457588 3.00544 0.0625 4 0.0625H14C14.9946 0.0625 15.9484 0.457588 16.6517 1.16085C17.3549 1.86411 17.75 2.81794 17.75 3.8125V13.8125C17.75 14.8071 17.3549 15.7609 16.6517 16.4642C15.9484 17.1674 14.9946 17.5625 14 17.5625H4ZM10.25 12.25C10.25 12.5815 10.1183 12.8995 9.88388 13.1339C9.64946 13.3683 9.33152 13.5 9 13.5C8.66848 13.5 8.35054 13.3683 8.11612 13.1339C7.8817 12.8995 7.75 12.5815 7.75 12.25C7.75 11.9185 7.8817 11.6005 8.11612 11.3661C8.35054 11.1317 8.66848 11 9 11C9.33152 11 9.64946 11.1317 9.88388 11.3661C10.1183 11.6005 10.25 11.9185 10.25 12.25ZM9.9375 5.0625C9.9375 4.81386 9.83873 4.5754 9.66291 4.39959C9.4871 4.22377 9.24864 4.125 9 4.125C8.75136 4.125 8.5129 4.22377 8.33709 4.39959C8.16127 4.5754 8.0625 4.81386 8.0625 5.0625V8.8125C8.0625 9.06114 8.16127 9.2996 8.33709 9.47541C8.5129 9.65123 8.75136 9.75 9 9.75C9.24864 9.75 9.4871 9.65123 9.66291 9.47541C9.83873 9.2996 9.9375 9.06114 9.9375 8.8125V5.0625Z" fill="#EB0A23"/>
</svg>
