<svg width="20" height="20" viewBox="0 0 20 20" fill="none" xmlns="http://www.w3.org/2000/svg">
<path fill-rule="evenodd" clip-rule="evenodd" d="M6.6665 1.66699C9.42791 1.66699 11.6665 3.90559 11.6665 6.66699C11.6665 7.17211 11.5916 7.65973 11.4523 8.11938L16.6665 13.3337C17.587 14.2541 17.587 15.7465 16.6665 16.667C15.746 17.5875 14.2536 17.5875 13.3332 16.667L8.11889 11.4528C7.65924 11.5921 7.17162 11.667 6.6665 11.667C3.9051 11.667 1.6665 9.4284 1.6665 6.66699C1.6665 6.1341 1.74986 5.62066 1.90428 5.13906L4.26943 7.50031L6.61373 6.71957L6.71842 6.61488L7.49982 4.27277L5.13193 1.90695C5.61545 1.75117 6.13115 1.66699 6.6665 1.66699Z" fill="white"/>
</svg>
