<svg width="36" height="36" viewBox="0 0 36 36" fill="none" xmlns="http://www.w3.org/2000/svg">
<g filter="url(#filter0_d_308_18812)">
<rect x="3" y="2" width="30" height="30" rx="15" fill="#EB0A23" shape-rendering="crispEdges"/>
<rect x="3.5" y="2.5" width="29" height="29" rx="14.5" stroke="white" shape-rendering="crispEdges"/>
<path d="M18.0002 8.66211C14.6668 8.66211 11.3335 9.07878 11.3335 11.9954V19.9121C11.3335 21.5204 12.6418 22.8288 14.2502 22.8288L13.0002 24.0788V24.4954H14.8585L16.5252 22.8288H19.6668L21.3335 24.4954H23.0002V24.0788L21.7502 22.8288C23.3585 22.8288 24.6668 21.5204 24.6668 19.9121V11.9954C24.6668 9.07878 21.6835 8.66211 18.0002 8.66211ZM14.2502 21.1621C13.5585 21.1621 13.0002 20.6038 13.0002 19.9121C13.0002 19.2204 13.5585 18.6621 14.2502 18.6621C14.9418 18.6621 15.5002 19.2204 15.5002 19.9121C15.5002 20.6038 14.9418 21.1621 14.2502 21.1621ZM17.1668 15.3288H13.0002V11.9954H17.1668V15.3288ZM18.8335 15.3288V11.9954H23.0002V15.3288H18.8335ZM21.7502 21.1621C21.0585 21.1621 20.5002 20.6038 20.5002 19.9121C20.5002 19.2204 21.0585 18.6621 21.7502 18.6621C22.4418 18.6621 23.0002 19.2204 23.0002 19.9121C23.0002 20.6038 22.4418 21.1621 21.7502 21.1621Z" fill="white"/>
</g>
<defs>
<filter id="filter0_d_308_18812" x="0" y="0" width="36" height="36" filterUnits="userSpaceOnUse" color-interpolation-filters="sRGB">
<feFlood flood-opacity="0" result="BackgroundImageFix"/>
<feColorMatrix in="SourceAlpha" type="matrix" values="0 0 0 0 0 0 0 0 0 0 0 0 0 0 0 0 0 0 127 0" result="hardAlpha"/>
<feOffset dy="1"/>
<feGaussianBlur stdDeviation="1.5"/>
<feComposite in2="hardAlpha" operator="out"/>
<feColorMatrix type="matrix" values="0 0 0 0 0 0 0 0 0 0 0 0 0 0 0 0 0 0 0.15 0"/>
<feBlend mode="normal" in2="BackgroundImageFix" result="effect1_dropShadow_308_18812"/>
<feBlend mode="normal" in="SourceGraphic" in2="effect1_dropShadow_308_18812" result="shape"/>
</filter>
</defs>
</svg>
