<svg width="52" height="54" viewBox="0 0 52 54" fill="none" xmlns="http://www.w3.org/2000/svg">
<path d="M22.5554 2.76816C23.4015 1.07192 25.1341 0 27.0296 0H46.3333C49.0948 0 51.3333 2.23858 51.3333 5V49C51.3333 51.7614 49.0948 54 46.3333 54H5.08162C1.36677 54 -1.05081 50.0924 0.607374 46.7682L22.5554 2.76816Z" fill="#ECECEC"/>
<path d="M23.0028 2.99135C23.7643 1.46473 25.3236 0.5 27.0296 0.5H46.3333C48.8186 0.5 50.8333 2.51472 50.8333 5V49C50.8333 51.4853 48.8186 53.5 46.3333 53.5H5.08162C1.73826 53.5 -0.437569 49.9832 1.0548 46.9913L23.0028 2.99135Z" stroke="black" stroke-opacity="0.25"/>
</svg>
