<svg width="38" height="38" viewBox="0 0 38 38" fill="none" xmlns="http://www.w3.org/2000/svg">
<g filter="url(#filter0_d_308_18805)">
<rect x="4" y="2" width="30" height="30" rx="15" fill="black" shape-rendering="crispEdges"/>
<rect x="4.5" y="2.5" width="29" height="29" rx="14.5" stroke="white" shape-rendering="crispEdges"/>
<path d="M19.0002 8.66211C15.6668 8.66211 12.3335 9.07878 12.3335 11.9954V19.9121C12.3335 21.5204 13.6418 22.8288 15.2502 22.8288L14.0002 24.0788V24.4954H15.8585L17.5252 22.8288H20.6668L22.3335 24.4954H24.0002V24.0788L22.7502 22.8288C24.3585 22.8288 25.6668 21.5204 25.6668 19.9121V11.9954C25.6668 9.07878 22.6835 8.66211 19.0002 8.66211ZM15.2502 21.1621C14.5585 21.1621 14.0002 20.6038 14.0002 19.9121C14.0002 19.2204 14.5585 18.6621 15.2502 18.6621C15.9418 18.6621 16.5002 19.2204 16.5002 19.9121C16.5002 20.6038 15.9418 21.1621 15.2502 21.1621ZM18.1668 15.3288H14.0002V11.9954H18.1668V15.3288ZM19.8335 15.3288V11.9954H24.0002V15.3288H19.8335ZM22.7502 21.1621C22.0585 21.1621 21.5002 20.6038 21.5002 19.9121C21.5002 19.2204 22.0585 18.6621 22.7502 18.6621C23.4418 18.6621 24.0002 19.2204 24.0002 19.9121C24.0002 20.6038 23.4418 21.1621 22.7502 21.1621Z" fill="white"/>
</g>
<defs>
<filter id="filter0_d_308_18805" x="0" y="0" width="38" height="38" filterUnits="userSpaceOnUse" color-interpolation-filters="sRGB">
<feFlood flood-opacity="0" result="BackgroundImageFix"/>
<feColorMatrix in="SourceAlpha" type="matrix" values="0 0 0 0 0 0 0 0 0 0 0 0 0 0 0 0 0 0 127 0" result="hardAlpha"/>
<feOffset dy="2"/>
<feGaussianBlur stdDeviation="2"/>
<feComposite in2="hardAlpha" operator="out"/>
<feColorMatrix type="matrix" values="0 0 0 0 0 0 0 0 0 0 0 0 0 0 0 0 0 0 0.15 0"/>
<feBlend mode="normal" in2="BackgroundImageFix" result="effect1_dropShadow_308_18805"/>
<feBlend mode="normal" in="SourceGraphic" in2="effect1_dropShadow_308_18805" result="shape"/>
</filter>
</defs>
</svg>
