<svg width="14" height="16" viewBox="0 0 14 16" fill="none" xmlns="http://www.w3.org/2000/svg">
<g opacity="0.5" clip-path="url(#clip0_308_6833)">
<path d="M10 1.5C10 1.10218 10.158 0.720644 10.4393 0.43934C10.7206 0.158035 11.1022 0 11.5 0C11.8978 0 12.2794 0.158035 12.5607 0.43934C12.842 0.720644 13 1.10218 13 1.5C13 1.89782 12.842 2.27936 12.5607 2.56066C12.2794 2.84196 11.8978 3 11.5 3C11.1022 3 10.7206 2.84196 10.4393 2.56066C10.158 2.27936 10 1.89782 10 1.5ZM6.39062 3.79063C6.22188 3.7125 6.025 3.73125 5.87813 3.84375L4.6 4.80312C4.15937 5.13438 3.53125 5.04375 3.2 4.60313C2.86875 4.1625 2.95938 3.53437 3.4 3.20312L4.67812 2.24375C5.41875 1.6875 6.40625 1.5875 7.24375 1.98125L10.0688 3.30938C10.9781 3.7375 11.2188 4.92188 10.5437 5.66875L9.34688 7H12.3906C13.3375 7 14.0469 7.86562 13.8625 8.79375L12.9812 13.1969C12.8719 13.7375 12.3469 14.0906 11.8031 13.9812C11.2594 13.8719 10.9094 13.3469 11.0188 12.8031L11.7812 9H9.58438C9.85313 9.6125 10 10.2875 10 11C10 13.7625 7.7625 16 5 16C2.2375 16 0 13.7625 0 11C0 8.2375 2.2375 6 5 6C5.34688 6 5.6875 6.03438 6.0125 6.10313L7.70625 4.40938L6.39062 3.79063ZM5 14C5.39397 14 5.78407 13.9224 6.14805 13.7716C6.51203 13.6209 6.84274 13.3999 7.12132 13.1213C7.3999 12.8427 7.62087 12.512 7.77164 12.1481C7.9224 11.7841 8 11.394 8 11C8 10.606 7.9224 10.2159 7.77164 9.85195C7.62087 9.48797 7.3999 9.15726 7.12132 8.87868C6.84274 8.6001 6.51203 8.37913 6.14805 8.22836C5.78407 8.0776 5.39397 8 5 8C4.60603 8 4.21593 8.0776 3.85195 8.22836C3.48797 8.37913 3.15726 8.6001 2.87868 8.87868C2.6001 9.15726 2.37913 9.48797 2.22836 9.85195C2.0776 10.2159 2 10.606 2 11C2 11.394 2.0776 11.7841 2.22836 12.1481C2.37913 12.512 2.6001 12.8427 2.87868 13.1213C3.15726 13.3999 3.48797 13.6209 3.85195 13.7716C4.21593 13.9224 4.60603 14 5 14Z" fill="black"/>
</g>
<defs>
<clipPath id="clip0_308_6833">
<rect width="14" height="16" fill="white"/>
</clipPath>
</defs>
</svg>
